<?xml version="1.0" standalone="no"?>
<!DOCTYPE svg PUBLIC "-//W3C//DTD SVG 20010904//EN"
 "http://www.w3.org/TR/2001/REC-SVG-20010904/DTD/svg10.dtd">
<svg version="1.0" xmlns="http://www.w3.org/2000/svg"
 width="32.000000pt" height="32.000000pt" viewBox="0 0 32.000000 32.000000"
 preserveAspectRatio="xMidYMid meet">

<g transform="translate(0.000000,32.000000) scale(0.100000,-0.100000)"
fill="#000000" stroke="none">
<path d="M95 306 c-37 -17 -70 -52 -84 -89 -17 -44 -14 -192 4 -207 10 -8 45
-11 109 -8 76 2 100 7 122 24 53 39 69 71 69 134 0 63 -16 95 -67 133 -34 25
-113 32 -153 13z m119 -41 c60 -29 81 -95 51 -159 -27 -57 -125 -93 -125 -46
0 15 7 20 25 20 36 0 75 42 75 80 0 70 -86 105 -135 55 -22 -21 -25 -33 -25
-100 0 -68 -2 -75 -20 -75 -18 0 -20 7 -20 71 0 81 17 126 58 151 34 22 74 23
116 3z m-9 -60 c14 -13 25 -33 25 -45 0 -27 -43 -70 -70 -70 -29 0 -27 38 3
42 16 2 22 10 22 28 0 20 -5 25 -25 25 -24 0 -25 -3 -28 -73 -3 -64 -5 -72
-22 -72 -18 0 -20 7 -20 70 0 62 3 74 25 95 13 14 34 25 45 25 12 0 32 -11 45
-25z"/>
</g>
</svg>
