<svg width="123" height="32" viewBox="0 0 123 32" fill="none" xmlns="http://www.w3.org/2000/svg">
<path d="M43.7656 16.2223C43.7656 12.4178 46.6105 9.60938 50.4517 9.60938C54.2928 9.60938 57.0841 12.4178 57.0841 16.2223C57.0841 20.0269 54.2392 22.8353 50.4517 22.8353C46.6641 22.8353 43.7656 20.0269 43.7656 16.2223ZM50.4517 20.3411C52.5951 20.3411 54.1637 18.5874 54.1637 16.2223C54.1637 13.8573 52.5927 12.1035 50.4517 12.1035C48.3107 12.1035 46.7007 13.8573 46.7007 16.2223C46.7007 18.5874 48.2522 20.3411 50.4517 20.3411Z" fill="white"/>
<path d="M58.5781 13.383H60.137C60.7849 13.383 61.311 13.9091 61.311 14.557C61.8274 13.8725 62.8625 13.2344 63.9537 13.2344C66.6696 13.2344 68.4988 15.0806 68.4988 18.0376C68.4988 20.9946 66.6696 22.8408 63.9537 22.8408C62.865 22.8408 61.8298 22.3975 61.3305 21.7131V26.0535H58.5976L58.5781 13.3805V13.383ZM63.5275 20.5123C64.8379 20.5123 65.744 19.5136 65.744 18.0181C65.744 16.5226 64.8379 15.5434 63.5275 15.5434C62.2171 15.5434 61.3305 16.5421 61.3305 18.0181C61.3305 19.4942 62.2171 20.5123 63.5275 20.5123Z" fill="white"/>
<path d="M69.9219 19.3698V13.3852H72.6377V18.7048C72.6377 19.7936 73.2661 20.4586 74.2453 20.4586C75.5191 20.4586 76.2596 19.3698 76.2596 17.4285V13.3828H78.9925V22.6921H76.2596V21.6569C75.8163 22.2488 74.7641 22.8383 73.3782 22.8383C71.3468 22.8383 69.9243 21.5084 69.9243 19.3649L69.9219 19.3698Z" fill="white"/>
<path d="M80.4688 19.5502H82.9069C82.9995 20.3272 83.4793 20.7705 84.3659 20.7705C85.1039 20.7705 85.5472 20.4563 85.5472 19.9399C85.5472 18.3518 80.6344 19.4771 80.6344 15.9867C80.6344 14.4547 81.9277 13.2344 84.0322 13.2344C86.3047 13.2344 87.7077 14.3986 87.9488 16.2644H85.5107C85.3621 15.58 84.8092 15.1756 84.0322 15.1756C83.4769 15.1756 83.0725 15.4168 83.0725 15.8211C83.0725 17.3166 88.0414 16.0988 88.0414 19.8473C88.0414 21.584 86.5069 22.8408 84.3659 22.8408C82.0008 22.8408 80.5784 21.4549 80.4688 19.5526V19.5502Z" fill="white"/>
<path d="M89.1094 16.2223C89.1094 12.011 91.9543 9.60938 95.6493 9.60938C98.8449 9.60938 101.134 11.6042 101.356 14.4126H98.4382C98.2531 13.0462 97.1448 12.1035 95.6493 12.1035C93.5984 12.1035 92.0468 13.5625 92.0468 16.2223C92.0468 18.8821 93.6179 20.3411 95.6493 20.3411C97.1083 20.3411 98.253 19.3815 98.4747 17.9955H101.412C101.117 20.7479 98.9375 22.8353 95.6493 22.8353C92.0274 22.8353 89.1094 20.4532 89.1094 16.2223Z" fill="white"/>
<path d="M102.797 9.60938H105.53V22.6892H102.797V9.60938Z" fill="white"/>
<path d="M108.826 9.13281C109.769 9.13281 110.451 9.79776 110.451 10.7038C110.451 11.6099 109.767 12.2749 108.826 12.2749C107.886 12.2749 107.219 11.6099 107.219 10.7038C107.219 9.79776 107.92 9.13281 108.826 9.13281ZM108.653 13.3807H110.212V22.69H107.479V14.5547C107.479 13.9068 108.005 13.3807 108.653 13.3807Z" fill="white"/>
<path d="M112.148 13.383H113.707C114.355 13.383 114.881 13.9091 114.881 14.557C115.398 13.8725 116.433 13.2344 117.524 13.2344C120.24 13.2344 122.069 15.0806 122.069 18.0376C122.069 20.9946 120.24 22.8408 117.524 22.8408C116.435 22.8408 115.4 22.3975 114.901 21.7131V26.0535H112.168L112.148 13.3805V13.383ZM117.098 20.5123C118.408 20.5123 119.314 19.5136 119.314 18.0181C119.314 16.5226 118.408 15.5434 117.098 15.5434C115.787 15.5434 114.901 16.5421 114.901 18.0181C114.901 19.4942 115.787 20.5123 117.098 20.5123Z" fill="white"/>
<path d="M5.08879 15.9511C5.11515 9.94742 9.99016 5.08869 16 5.08869C22.0262 5.08869 26.9113 9.97385 26.9113 16C26.9113 22.0262 22.0262 26.9113 16 26.9113C15.2111 26.9113 14.4417 26.8276 13.7003 26.6685V31.836C14.4513 31.9441 15.2191 32 16 32C24.8366 32 32 24.8366 32 16C32 7.16344 24.8366 0 16 0C7.16344 0 0 7.16344 0 16V31.9511H5.08869C5.08869 31.9511 5.08879 22.9251 5.08879 16.8C5.08879 16.6768 5.08879 15.9511 5.08879 15.9511Z" fill="white"/>
<path d="M6.85015 15.993V32H11.9388L11.9391 17.0133V15.9511C11.9616 13.7338 13.7686 11.9388 16 11.9388C18.2455 11.9388 20.0612 13.7565 20.0612 15.993C20.0612 18.2295 18.2455 20.0472 16 20.0472C15.1458 20.0472 14.3538 19.7842 13.7003 19.3351V24.8446C14.4352 25.0347 15.2058 25.1359 16 25.1359C21.0508 25.1359 25.1498 21.045 25.1498 15.993C25.1498 10.941 21.0508 6.85015 16 6.85015C10.9492 6.85015 6.85015 10.941 6.85015 15.993Z" fill="white"/>
<defs>
<radialGradient id="paint0_radial_115_86" cx="0" cy="0" r="1" gradientUnits="userSpaceOnUse" gradientTransform="translate(-3.00503 15.023) rotate(-10.029) scale(17.9572 17.784)">
<stop stop-color="#00B0BB"/>
<stop offset="1" stop-color="#00DB65"/>
</radialGradient>
<linearGradient id="paint1_linear_115_86" x1="7.39036" y1="4.81308" x2="1.62975" y2="18.6894" gradientUnits="userSpaceOnUse">
<stop stop-color="#18E299"/>
<stop offset="1"/>
</linearGradient>
<linearGradient id="paint2_linear_115_86" x1="7.94816" y1="8.01562" x2="1.7612" y2="18.746" gradientUnits="userSpaceOnUse">
<stop/>
<stop offset="1" stop-opacity="0"/>
</linearGradient>
<radialGradient id="paint3_radial_115_86" cx="0" cy="0" r="1" gradientUnits="userSpaceOnUse" gradientTransform="translate(8.11404 20.8822) rotate(-75.7542) scale(21.6246 23.7772)">
<stop stop-color="#00BBBB"/>
<stop offset="0.712616" stop-color="#00DB65"/>
</radialGradient>
<linearGradient id="paint4_linear_115_86" x1="7.60205" y1="5.8709" x2="15.5561" y2="16.3719" gradientUnits="userSpaceOnUse">
<stop/>
<stop offset="1" stop-opacity="0"/>
</linearGradient>
<radialGradient id="paint5_radial_115_86" cx="0" cy="0" r="1" gradientUnits="userSpaceOnUse" gradientTransform="translate(7.84537 21.5181) rotate(-20.3525) scale(18.5603 17.32)">
<stop stop-color="#00B0BB"/>
<stop offset="1" stop-color="#00DB65"/>
</radialGradient>
<linearGradient id="paint6_linear_115_86" x1="16.8078" y1="13.0071" x2="10.0409" y2="22.9937" gradientUnits="userSpaceOnUse">
<stop stop-color="#00B1BC"/>
<stop offset="1"/>
</linearGradient>
<linearGradient id="paint7_linear_115_86" x1="16.8078" y1="13.0071" x2="14.1687" y2="23.841" gradientUnits="userSpaceOnUse">
<stop/>
<stop offset="1" stop-opacity="0"/>
</linearGradient>
</defs>
</svg>
